<?xml version="1.0" encoding="UTF-8" standalone="no"?>
<!-- Created with Inkscape (http://www.inkscape.org/) -->

<svg
   width="210mm"
   height="297mm"
   viewBox="0 0 210 297"
   version="1.1"
   id="svg5"
   xmlns="http://www.w3.org/2000/svg"
   xmlns:svg="http://www.w3.org/2000/svg">
  <defs
     id="defs2" />
  <g
     id="layer1">
    <g
       aria-label="A"
       transform="matrix(1.0287358,0.01350224,0,0.97206686,0,0)"
       id="text242"
       style="font-size:97.3053px;-inkscape-font-specification:sans-serif;opacity:0.621951;fill:#ffffff;stroke:#ffffff;stroke-width:2.44;stroke-linecap:square;stroke-linejoin:miter;stroke-dasharray:4.88, 14.64;stroke-dashoffset:4.636;stroke-opacity:0.5;paint-order:markers fill stroke">
      <path
         d="m 103.67934,98.979347 c -2.39496,0.04579 -13.410087,0.242391 -10.025138,-0.301836 l 2.753472,0.43523 -20.536463,0.360619 -11.331064,30.11007 -10.37222,9.02895 32.840125,-86.83538 0.02055,-0.07611 z m -8.490797,-5.822808 -8.029614,-25.033572 -9.481482,25.40757 c -2.301892,0.500655 10.217014,-0.579844 17.274817,-0.209201 z"
         style="font-size:97.3056px;fill:#ffffff;stroke:#ffffff;stroke-width:2.44;stroke-linecap:square;stroke-linejoin:miter;stroke-dasharray:4.88, 14.64;stroke-dashoffset:4.636;stroke-opacity:0.5;paint-order:markers fill stroke"
         id="path515" />
    </g>
    <g
       aria-label="J"
       transform="matrix(1.0644737,0,0,0.93943139,21.103882,-28.846583)"
       id="text410"
       style="font-size:115.27px;-inkscape-font-specification:sans-serif;opacity:0.621951;fill:#ffffff;fill-opacity:1;stroke:#ffffff;stroke-width:2.051;stroke-dasharray:4.102, 2.051, 1.0255, 2.051;stroke-dashoffset:1.8459;stroke-opacity:0.5">
      <path
         d="m 88.890941,180.17573 c 0.03042,5.94953 0.850059,10.63845 -2.811119,13.84897 -3.63025,3.21058 -8.553391,4.81007 -14.769458,4.79849 -1.484437,-0.004 -3.465803,-0.14301 -5.944098,-0.42085 -2.477828,-0.24743 -4.554559,-0.55481 -6.230199,-0.92215 l -0.130593,-8.42299 0.510272,7.5e-4 c 1.274542,0.42731 2.843118,0.87032 4.705724,1.32908 1.862606,0.45876 3.768068,0.68996 5.716394,0.69359 2.845168,0.005 5.097808,-0.30925 6.757909,-0.94354 1.691019,-0.63424 2.929389,-1.54254 3.715099,-2.72477 0.81616,-1.21257 1.31884,-2.6989 1.50802,-4.45896 0.220107,-1.76002 0.31228,-3.79344 0.27651,-6.10029 l -0.173765,-41.91858 -15.606264,0.26005 0.132607,-7.13884 22.076171,-0.066 z"
         id="path1471"
         style="fill:#ffffff;fill-opacity:1;stroke:#ffffff;stroke-width:2.051;stroke-dasharray:4.102, 2.051, 1.0255, 2.051;stroke-dashoffset:1.8459;stroke-opacity:0.5;image-rendering:auto" />
    </g>
    <path
       style="opacity:0.621951;fill:#ffffff;fill-opacity:1;stroke:#ffffff;stroke-width:5.03563;stroke-linecap:square;stroke-linejoin:miter;stroke-dasharray:10.0712, 5.03562, 2.51781, 5.03562;stroke-dashoffset:4.53206;stroke-opacity:0.5;paint-order:markers fill stroke"
       d="m 215.3333,510.57864 c -1.20091,-1.27831 -1.68471,-1.44197 -2.43124,-0.8224 -0.76098,0.63156 -0.89357,0.54067 -0.72261,-0.49532 0.11516,-0.69784 -0.0345,-1.65795 -0.33257,-2.13359 -0.35553,-0.56732 0.0321,-1.46396 1.12686,-2.60666 1.3991,-1.46034 5.81512,-11.45366 12.19615,-27.59948 l 1.24012,-3.13786 -1.95992,-0.7398 c -1.07796,-0.40688 -1.96076,-1.0411 -1.96177,-1.40937 -10e-4,-0.36828 2.07982,-5.86705 4.62406,-12.2195 4.26646,-10.65246 4.7335,-11.5156 6.0107,-11.10836 0.76164,0.24285 1.79914,0.47082 2.30556,0.5066 0.61802,0.0437 3.65505,-6.66308 9.23665,-20.39755 4.57373,-11.25442 8.32499,-20.69704 8.33612,-20.98359 0.0111,-0.28655 -0.85672,-0.82671 -1.92858,-1.20036 -1.07185,-0.37365 -1.94881,-0.86643 -1.94881,-1.09506 0,-0.22864 2.11934,-5.75366 4.70964,-12.27784 3.68559,-9.28287 4.92152,-11.7736 5.68406,-11.45493 3.65942,1.52927 3.11526,2.42007 11.91136,-19.49898 4.52453,-11.27473 8.22643,-20.76469 8.22643,-21.08879 0,-0.32411 -0.89221,-0.95885 -1.98269,-1.41054 -1.09049,-0.45169 -1.85435,-1.14489 -1.69748,-1.54042 5.22911,-13.18543 9.13256,-22.8655 9.3057,-23.07701 0.12212,-0.14917 1.22821,0.0376 2.45797,0.41501 l 2.23593,0.68622 8.2309,-20.5528 c 4.52699,-11.30404 8.37518,-20.9182 8.55152,-21.3648 0.17634,-0.44661 0.016,-0.81201 -0.3562,-0.81201 -0.37225,0 -1.41586,-0.28099 -2.31914,-0.62441 l -1.64233,-0.62441 4.80539,-11.78369 c 2.64295,-6.48103 4.96951,-11.94783 5.17012,-12.14844 0.20061,-0.2006 1.14126,-0.0109 2.09033,0.42148 0.94906,0.43243 1.94683,0.553 2.21726,0.26793 0.27043,-0.28507 4.18147,-9.7237 8.69122,-20.97474 7.5308,-18.78806 8.10827,-20.52316 7.08061,-21.2746 -0.61541,-0.45 -1.50153,-0.81818 -1.96917,-0.81818 -1.2255,0 -1.11992,-0.47769 1.67189,-7.56436 1.38718,-3.5212 3.20617,-8.95139 4.04221,-12.0671 l 1.52006,-5.66494 4.6425,12.4858 4.64249,12.4858 -2.02623,0.7343 c -1.11667,0.40467 -1.95022,1.13369 -1.85688,1.62401 0.0931,0.48935 3.59719,10.18528 7.78677,21.54652 8.20458,22.24904 7.51418,21.05129 11.30931,19.62018 0.62573,-0.23597 2.11196,3.0464 5.25719,11.61067 2.41167,6.56679 4.38485,12.24449 4.38485,12.61709 0,0.37261 -0.87697,0.87008 -1.94882,1.1055 -1.07185,0.23542 -1.94882,0.58018 -1.94882,0.76614 0,0.18596 3.54406,9.91708 7.87568,21.62472 l 7.87569,21.2866 2.19266,-0.67295 c 1.20596,-0.37012 2.28155,-0.5509 2.39018,-0.40172 0.33566,0.4609 8.89807,23.75342 8.89807,24.20563 0,0.2342 -0.54885,0.42583 -1.21967,0.42583 -1.55856,0 -2.93527,1.64051 -2.44623,2.91496 0.30828,0.80334 -0.27122,0.98268 -3.17535,0.98268 -3.5141,0 -3.55245,-0.021 -3.55245,-1.94882 v -1.94882 h -8.44488 -8.44488 v 1.94882 c 0,1.83364 -0.15037,1.94882 -2.5443,1.94882 -3.18039,0 -3.81736,-1.3683 -1.09269,-2.34728 1.27921,-0.45963 1.97646,-1.13257 1.9128,-1.84611 -0.0551,-0.61756 -3.26167,-10.40905 -7.12573,-21.75886 l -7.02555,-20.63601 -2.19208,0.60526 c -1.20564,0.3329 -2.27085,0.51088 -2.36713,0.39551 -0.25939,-0.3108 -8.148,-24.17768 -8.148,-24.65164 0,-0.22306 0.87697,-0.58095 1.94882,-0.79532 1.07185,-0.21437 1.94249,-0.76248 1.93476,-1.21801 -0.008,-0.45554 -1.44426,-4.92077 -3.19228,-9.92274 l -3.17823,-9.09449 -1.10956,2.59843 c -0.61025,1.42913 -2.80935,6.93279 -4.88689,12.23035 l -3.77735,9.63193 2.17988,0.91081 2.17988,0.91081 -4.77276,11.86868 c -4.40951,10.96532 -4.88756,11.85173 -6.28082,11.64603 -0.82942,-0.12246 -1.89202,-0.26862 -2.36131,-0.32481 -0.54202,-0.0649 -3.34722,6.17699 -7.69058,17.11242 -3.76053,9.46801 -7.40791,18.64412 -8.10528,20.39135 l -1.26796,3.17679 11.06976,-0.46838 11.06976,-0.46838 v 2.32604 2.32604 l 8.93209,-9e-5 8.93209,-9e-5 -0.22907,5.52175 -0.22906,5.52174 2.17788,-4e-4 2.17788,-4.1e-4 -0.22509,3.24844 c -0.21486,3.10062 -0.31092,3.24843 -2.11122,3.24843 -1.5788,0 -1.88613,0.26463 -1.88613,1.62402 v 1.62401 h -14.19028 c -7.80466,0 -17.30515,0.19059 -21.11221,0.42353 l -6.92192,0.42352 v 1.8501 c 0,1.35919 -0.31517,1.8501 -1.1878,1.8501 -0.91627,0 -1.94101,1.89335 -4.48272,8.28248 -3.42261,8.60344 -3.29415,8.45717 -6.88305,7.83754 -1.16364,-0.2009 -2.59069,3.09336 -16.88803,38.98486 l -1.11998,2.81157 1.96386,0.74128 c 1.08013,0.4077 1.96469,1.0426 1.9657,1.41087 0.001,0.36827 -2.07981,5.86705 -4.62406,12.2195 -4.26646,10.65246 -4.7335,11.51559 -6.01069,11.10836 -3.00818,-0.95917 -3.15988,-0.7473 -7.88018,11.00616 l -4.64976,11.57783 -5.8363,4.66233 c -3.20997,2.56428 -6.80637,5.47963 -7.99201,6.47855 l -2.15571,1.8162 1.51028,1.60762 c 1.30786,1.39216 1.38458,1.72529 0.57245,2.48573 -1.31636,1.23257 -18.32159,14.96832 -19.19477,15.50433 -0.39467,0.24227 -1.39225,-0.27765 -2.21684,-1.15539 z"
       id="path3968"
       transform="scale(0.26458333)" />
    <path
       style="opacity:0.621951;fill:#ffffff;fill-opacity:1;stroke:#ffffff;stroke-width:1.33234;stroke-linecap:square;stroke-linejoin:miter;stroke-dasharray:2.66467, 1.33234, 0.666171, 1.33234;stroke-dashoffset:1.19911;stroke-opacity:0.5;paint-order:markers fill stroke"
       d="m 94.445311,157.9508 c 0,-0.50948 -0.01111,-0.51617 -0.931254,-0.56093 -0.512191,-0.0249 -1.053597,-0.0982 -1.203127,-0.16285 -0.213227,-0.0922 -0.27187,0.002 -0.27187,0.43598 0,0.55261 -0.0013,0.55329 -0.730466,0.41608 -0.40176,-0.0756 -1.329884,-0.21754 -2.062502,-0.31543 -1.319405,-0.1763 -1.332031,-0.18257 -1.332031,-0.66211 0,-0.51356 -0.197885,-0.60511 -1.718749,-0.79521 -0.532408,-0.0665 -0.60747,-0.0247 -0.652958,0.36397 -0.04374,0.37374 -0.122179,0.42532 -0.52665,0.34628 -0.415904,-0.0813 -0.466077,-0.15497 -0.401754,-0.59011 0.05527,-0.37391 0.0047,-0.50057 -0.203819,-0.51072 -0.213506,-0.0104 -0.27732,-0.18896 -0.27732,-0.77603 0,-0.73468 -0.02043,-0.76551 -0.558594,-0.84358 l -0.558594,-0.081 -0.04898,-1.7641 -0.04898,-1.7641 0.521637,0.0254 0.521639,0.0254 v -1.03125 -1.03125 l -0.515625,-0.0251 c -0.496528,-0.0241 -0.515625,-0.0537 -0.515625,-0.79852 0,-0.76935 0.0032,-0.77328 0.601562,-0.74418 0.527084,0.0256 0.601562,0.0825 0.601562,0.45896 0,0.33979 0.08689,0.43391 0.415366,0.44989 0.228449,0.0111 0.441145,0.0923 0.472655,0.18051 0.03151,0.0882 0.346064,0.22785 0.699005,0.31041 0.574701,0.13444 0.6584,0.10705 0.801481,-0.26233 l 0.159766,-0.41244 1.978808,0.5398 c 1.976065,0.53904 1.978679,0.54043 1.886344,0.99761 -0.09946,0.49245 -0.217913,0.43462 1.687838,0.82394 0.388639,0.0794 0.467553,0.0196 0.556737,-0.42199 0.08367,-0.4143 0.179588,-0.50008 0.492487,-0.44044 0.278852,0.0532 0.403934,0.20829 0.44296,0.54937 0.04711,0.41172 0.130458,0.47901 0.623049,0.50297 0.312764,0.0152 0.81036,0.0878 1.10577,0.16121 0.505709,0.12574 0.53711,0.10352 0.53711,-0.3801 v -0.51366 l 1.82395,-0.0335 c 1.00317,-0.0184 1.931297,-0.0694 2.062498,-0.11338 0.165013,-0.0553 0.238553,0.055 0.238553,0.35799 0,0.60406 0.1398,0.6533 1.26683,0.44614 1.1798,-0.21686 1.22263,-0.24956 0.96754,-0.7386 -0.22712,-0.43543 -0.22402,-0.44138 0.30078,-0.57716 0.27747,-0.0718 0.38672,-0.0299 0.38672,0.14829 0,0.13659 0.10991,0.34491 0.24424,0.46292 0.19234,0.16899 0.42711,0.13081 1.10502,-0.17974 1.05081,-0.48137 1.13909,-0.60349 0.72305,-1.00024 -0.31699,-0.30229 -0.30777,-0.32845 0.33943,-0.96386 0.36589,-0.35923 0.80438,-0.94738 0.97441,-1.307 0.31146,-0.65871 0.37781,-0.67681 1.20102,-0.32773 0.12311,0.0522 0.28091,-0.20571 0.39694,-0.64881 0.10593,-0.40451 0.23188,-0.86891 0.27989,-1.032 0.0697,-0.23667 -0.0191,-0.30171 -0.43992,-0.32218 -0.44777,-0.0218 -0.5272,-0.0904 -0.5272,-0.45533 0,-0.37649 0.0745,-0.42607 0.60156,-0.40043 l 0.60156,0.0293 v -1.03125 -1.03125 l -0.51562,-0.0251 -0.51563,-0.0251 v -1.80469 -1.80469 l 0.60156,0.0293 0.60157,0.0293 v -1.03125 -1.03125 l -0.60157,-0.0293 c -0.52708,-0.0256 -0.60156,-0.0825 -0.60156,-0.45895 0,-0.37649 0.0745,-0.42607 0.60156,-0.40043 l 0.60157,0.0293 v -1.03125 -1.03126 l -0.60157,-0.0293 -0.60156,-0.0293 v -1.89062 -1.89063 l 0.61014,0.0297 0.61014,0.0297 -0.0515,-0.99079 c -0.051,-0.97954 -0.0579,-0.99171 -0.61014,-1.07182 -0.41224,-0.0598 -0.55859,-0.16538 -0.55859,-0.403 0,-0.23762 0.14635,-0.32896 0.55859,-0.34866 0.30723,-0.0147 0.53926,-0.0856 0.51563,-0.15768 -0.0236,-0.072 -0.043,-0.56605 -0.043,-1.09779 v -0.9668 l -0.51562,0.078 -0.51563,0.0781 v -1.88633 -1.88633 l 0.51563,0.0251 0.51562,0.0251 v -1.03125 -1.03124 l -0.51562,-0.0251 c -0.43542,-0.0212 -0.51563,-0.0919 -0.51563,-0.45477 0,-0.36285 0.0802,-0.42578 0.51563,-0.4046 l 0.51562,0.0251 v -1.03125 -1.03125 l -0.51562,-0.0251 -0.51563,-0.0251 v -1.80468 -1.80469 l 0.51563,0.0251 0.51562,0.0251 v -1.11719 -1.11719 l -0.51562,-0.0251 c -0.40105,-0.0195 -0.51563,-0.10147 -0.51563,-0.36884 0,-0.26736 0.11458,-0.33817 0.51563,-0.31866 l 0.51562,0.0251 v -1.03125 -1.03125 l -0.51562,-0.0251 -0.51563,-0.0251 v -1.89062 -1.89062 l 0.51563,0.0251 0.51562,0.0251 v -1.03125 -1.03125 l -0.60156,-0.0293 c -0.52708,-0.0256 -0.60156,-0.0825 -0.60156,-0.45895 0,-0.376491 0.0745,-0.426068 0.60156,-0.400427 0.58724,0.02857 0.60156,0.01288 0.60156,-0.658238 0,-0.496528 -0.0716,-0.690983 -0.25781,-0.70004 -0.19052,-0.0093 -0.25781,-0.212064 -0.25781,-0.776997 v -0.764455 l -0.88778,-0.09514 -0.88777,-0.09514 -0.83367,-2.274929 c -0.45852,-1.251213 -0.81312,-2.428618 -0.78801,-2.61646 0.0563,-0.421158 0.8191,-0.555242 0.8191,-0.143984 0,0.219414 0.22457,0.280691 1.20313,0.328294 l 1.20312,0.05853 v -0.515622 -0.515625 l 2.0625,0.100332 2.0625,0.100331 v 0.515626 0.515622 l 1.20313,0.05853 1.20312,0.05853 v -0.515622 c 0,-0.427511 0.0694,-0.512248 0.40633,-0.49586 0.35309,0.01718 0.42064,0.124931 0.51562,0.822508 0.0601,0.441509 0.1093,1.062653 0.1093,1.380317 0,0.527167 0.045,0.579764 0.51563,0.602658 l 0.51562,0.02508 v 1.890625 1.890625 l -0.51562,-0.02508 -0.51563,-0.02508 v 1.031248 1.031251 l 0.51563,0.02508 c 0.43541,0.02118 0.51562,0.09192 0.51562,0.454772 0,0.36285 -0.0802,0.42579 -0.51562,0.40461 l -0.51563,-0.0251 v 1.03126 c 0,1.02622 0.002,1.03136 0.50457,1.05579 l 0.50457,0.0246 0.054,1.80767 0.054,1.80768 -0.5586,-0.0274 -0.55859,-0.0274 v 1.11718 1.11719 l 0.60156,0.0293 c 0.48698,0.0237 0.60156,0.0947 0.60156,0.37302 0,0.27827 -0.11458,0.33817 -0.60156,0.31448 l -0.60156,-0.0293 v 1.03125 1.03125 l 0.60156,0.0293 0.60156,0.0293 v 1.89062 1.89063 l -0.60156,-0.0293 c -0.58097,-0.0283 -0.60148,-0.007 -0.59921,0.61539 0.004,1.11756 0.15356,1.42544 0.7052,1.45227 0.41403,0.0201 0.49557,0.0948 0.49557,0.45379 0,0.36285 -0.0802,0.42579 -0.51562,0.40461 l -0.51562,-0.0251 v 1.03125 1.03125 l 0.51562,0.0251 0.51562,0.0251 v 1.80469 1.80469 l -0.51562,-0.0251 -0.51562,-0.0251 v 1.03125 1.03125 l 0.51562,0.0251 c 0.43542,0.0212 0.51562,0.0919 0.51562,0.45478 0,0.36284 -0.0802,0.42578 -0.51562,0.4046 l -0.51562,-0.0251 v 1.03125 1.03125 l 0.51562,0.0251 0.51562,0.0251 v 1.89063 1.89062 l -0.51562,-0.0251 -0.51562,-0.0251 v 1.03125 1.03125 l 0.51562,0.0251 c 0.43542,0.0212 0.51562,0.0919 0.51562,0.45477 0,0.36285 -0.0802,0.42579 -0.51562,0.40461 l -0.51562,-0.0251 v 1.03125 1.03125 l 0.60156,0.0293 0.60156,0.0293 v 2.83594 2.83593 l -0.51562,-0.0251 -0.51563,-0.0251 v 1.03125 1.03125 l 0.51563,0.0251 c 0.43541,0.0212 0.51562,0.0919 0.51562,0.45477 0,0.35993 -0.0812,0.42574 -0.50036,0.40535 -0.48984,-0.0238 -0.50158,-0.003 -0.55859,0.99336 l -0.0582,1.01771 0.55295,0.13027 c 0.51417,0.12115 0.54608,0.16866 0.45495,0.67738 -0.36435,2.03406 -0.85803,3.23929 -1.25206,3.05672 -0.66972,-0.31031 -0.80336,-0.25329 -1.37027,0.58467 l -0.58319,0.86201 0.37313,0.26591 c 0.34972,0.24921 0.35523,0.28481 0.0879,0.56721 -0.27564,0.29116 -0.30039,0.29008 -0.73526,-0.0321 -0.44762,-0.33166 -0.45477,-0.33029 -1.34638,0.25799 -0.8261,0.54505 -0.87706,0.61789 -0.65,0.92887 0.13551,0.18559 0.24883,0.3848 0.25184,0.44267 0.007,0.1421 -1.76283,0.9891 -2.85102,1.36415 l -0.87992,0.30327 -0.19917,-0.44681 c -0.13358,-0.29969 -0.29659,-0.42335 -0.49507,-0.37558 -0.16276,0.0392 -0.66148,0.15493 -1.10829,0.25725 -0.75683,0.17329 -0.80971,0.22196 -0.77344,0.71183 0.0316,0.42609 -0.0333,0.53258 -0.34171,0.56152 -0.29024,0.0272 -0.40792,-0.0743 -0.49553,-0.42762 -0.10202,-0.41147 -0.17486,-0.45424 -0.6506,-0.38199 -0.29465,0.0447 -0.81125,0.11213 -1.14802,0.14975 -0.55272,0.0617 -0.60554,0.11474 -0.54287,0.54478 0.0668,0.45831 0.0346,0.47888 -0.84864,0.54197 -0.50494,0.0361 -1.478807,0.039 -2.164157,0.006 -1.214983,-0.0578 -1.246095,-0.0699 -1.246095,-0.48881 0,-0.41741 -0.03437,-0.43136 -1.203124,-0.48822 -1.168752,-0.0568 -1.203126,-0.0463 -1.203126,0.37116 0,0.34375 -0.08594,0.42551 -0.429686,0.40879 -0.362847,-0.0177 -0.429689,-0.10111 -0.429689,-0.53653 z"
       id="path3970" />
  </g>
</svg>
